HIERARCHY
ROOT Hips
{
    OFFSET 0.000000 0.000000 0.000000
    CHANNELS 6 Xposition Yposition Zposition Zrotation Xrotation Yrotation
    JOINT Spine
    {
        OFFSET -0.000000 14.517291 0.000000
        CHANNELS 3 Zrotation Xrotation Yrotation
        JOINT Spine1
        {
            OFFSET -0.000000 37.558300 0.000000
            CHANNELS 3 Zrotation Xrotation Yrotation
            JOINT Neck
            {
                OFFSET -0.000000 37.404057 3.400369
                CHANNELS 3 Zrotation Xrotation Yrotation
                JOINT Head
                {
                    OFFSET -0.000000 24.785618 -3.540803
                    CHANNELS 3 Zrotation Xrotation Yrotation
                    End Site
                    {
                        OFFSET -0.000000 35.408028 0.000000
                    }
                }
            }
            JOINT LeftShoulder
            {
                OFFSET 6.992933 33.973492 -0.192664
                CHANNELS 3 Zrotation Xrotation Yrotation
                JOINT LeftArm
                {
                    OFFSET 21.527611 0.000000 0.000000
                    CHANNELS 3 Zrotation Xrotation Yrotation
                    JOINT LeftForeArm
                    {
                        OFFSET 56.353916 0.000000 0.000000
                        CHANNELS 3 Zrotation Xrotation Yrotation
                        JOINT LeftHand
                        {
                            OFFSET 47.774071 0.000000 0.000000
                            CHANNELS 3 Zrotation Xrotation Yrotation
                            End Site
                            {
                                OFFSET 26.556021 0.000000 0.000000
                            }
                        }
                    }
                }
            }
            JOINT RightShoulder
            {
                OFFSET -7.065357 33.973492 -0.192664
                CHANNELS 3 Zrotation Xrotation Yrotation
                JOINT RightArm
                {
                    OFFSET -21.527611 0.000000 0.000000
                    CHANNELS 3 Zrotation Xrotation Yrotation
                    JOINT RightForeArm
                    {
                        OFFSET -56.353916 0.000000 0.000000
                        CHANNELS 3 Zrotation Xrotation Yrotation
                        JOINT RightHand
                        {
                            OFFSET -47.774071 0.000000 0.000000
                            CHANNELS 3 Zrotation Xrotation Yrotation
                            End Site
                            {
                                OFFSET -26.556021 0.000000 0.000000
                            }
                        }
                    }
                }
            }
        }
    }
    JOINT LeftUpLeg
    {
        OFFSET 17.704014 0.000000 0.000000
        CHANNELS 3 Zrotation Xrotation Yrotation
        JOINT LeftLeg
        {
            OFFSET -0.000000 -81.181816 0.000000
            CHANNELS 3 Zrotation Xrotation Yrotation
            JOINT LeftFoot
            {
                OFFSET -0.000000 -62.821102 0.000000
                CHANNELS 3 Zrotation Xrotation Yrotation
                JOINT LeftToeBase
                {
                    OFFSET -0.000000 -11.507608 26.556021
                    CHANNELS 3 Zrotation Xrotation Yrotation
                    End Site
                    {
                        OFFSET -0.000000 0.000000 7.081605
                    }
                }
            }
        }
    }
    JOINT RightUpLeg
    {
        OFFSET -17.704014 0.000000 0.000000
        CHANNELS 3 Zrotation Xrotation Yrotation
        JOINT RightLeg
        {
            OFFSET -0.000000 -81.181816 0.000000
            CHANNELS 3 Zrotation Xrotation Yrotation
            JOINT RightFoot
            {
                OFFSET -0.000000 -62.821102 0.000000
                CHANNELS 3 Zrotation Xrotation Yrotation
                JOINT RightToeBase
                {
                    OFFSET -0.000000 -11.507608 26.556021
                    CHANNELS 3 Zrotation Xrotation Yrotation
                    End Site
                    {
                        OFFSET -0.000000 0.000000 7.081605
                    }
                }
            }
        }
    }
}
MOTION
Frames:    6
Frame Time:    0.008333
-10.897758    157.578964    -91.921997    -2.365483    -6.840460    49.141262    -0.754868    -3.058651    0.141149    -8.015153    1.103157    0.127706    4.150769    8.102325    -21.285517    17.238098    -0.775027    -20.032871    8.374239    -0.195652    -19.315603    -41.831509    -4.860384    -83.608383    9.806890    -54.666451    -119.906563    -21.847221    -38.761139    -31.881893    -15.448157    -5.917554    -3.430310    12.218458    -25.775284    48.184002    -6.636967    -1.179427    14.049833    -7.997350    -2.910509    35.323273    24.096695    0.691141    -4.332456    -9.959101    24.313219    -20.155645    -3.603005    -24.293732    41.267410    0.000000    0.000000    0.000000    -10.961771    -13.373412    -22.412861    5.377224    17.679726    -18.733501    6.622061    8.626247    -10.561918    0.000000    0.000000    0.000000    
-10.908071    157.577316    -91.929970    -2.358524    -6.856647    49.152687    -0.753786    -3.065290    0.137949    -8.025225    1.103253    0.127212    4.144943    8.127347    -21.287268    17.279835    -0.798344    -20.023867    8.351614    -0.201597    -19.355379    -41.882980    -4.864475    -83.581856    9.895751    -54.682400    -119.809860    -21.750664    -38.716122    -31.832363    -15.432840    -5.921798    -3.412839    12.182993    -25.768002    48.148849    -6.643041    -1.211568    14.059588    -7.979850    -2.936051    35.327827    24.103872    0.692053    -4.345480    -9.952241    24.325603    -20.179270    -3.582390    -24.288803    41.280537    0.000000    0.000000    0.000000    -10.951365    -13.361492    -22.416098    5.368997    17.678356    -18.728600    6.618944    8.635595    -10.577685    0.000000    0.000000    0.000000    
-10.921406    157.575363    -91.937569    -2.353116    -6.869192    49.165142    -0.762049    -3.062988    0.140525    -8.020178    1.087128    0.126190    4.126085    8.138953    -21.295853    17.315353    -0.798128    -20.026016    8.339836    -0.139848    -19.352856    -41.927509    -4.856691    -83.632469    9.995934    -54.705246    -119.686592    -21.643354    -38.673241    -31.793833    -15.429413    -5.904828    -3.432015    12.177707    -25.763046    48.159214    -6.664109    -1.235680    14.057173    -7.960245    -2.953398    35.355129    24.109106    0.683058    -4.338448    -9.940379    24.346363    -20.204374    -3.587803    -24.306253    41.283634    0.000000    0.000000    0.000000    -10.947307    -13.347061    -22.408131    5.377744    17.671652    -18.735584    6.625756    8.634151    -10.586131    0.000000    0.000000    0.000000    
-10.931554    157.572586    -91.944160    -2.343916    -6.885131    49.180069    -0.757801    -3.067896    0.140627    -8.036510    1.096587    0.127013    4.136685    8.112387    -21.302677    17.311474    -0.784277    -20.037670    8.339752    -0.118108    -19.372021    -41.929852    -4.826334    -83.642372    10.113379    -54.777702    -119.556808    -21.544029    -38.674248    -31.754700    -15.417942    -5.926122    -3.440596    12.174138    -25.760172    48.152241    -6.662684    -1.250416    14.055742    -7.920639    -2.952898    35.318745    24.113089    0.682171    -4.337694    -9.923230    24.363577    -20.247427    -3.582523    -24.315557    41.296036    0.000000    0.000000    0.000000    -10.940674    -13.327465    -22.398041    5.381077    17.665159    -18.725286    6.617323    8.628659    -10.597348    0.000000    0.000000    0.000000    
-10.944155    157.569580    -91.953156    -2.336741    -6.903749    49.197624    -0.761194    -3.069403    0.140517    -8.034836    1.097397    0.127062    4.141800    8.123742    -21.309776    17.326250    -0.805179    -20.039856    8.329914    -0.097023    -19.428322    -41.911301    -4.801894    -83.614204    10.211323    -54.843159    -119.444435    -21.450130    -38.684422    -31.732389    -15.415334    -5.936659    -3.449177    12.155445    -25.727913    48.137260    -6.686805    -1.275671    14.044799    -7.877350    -2.961717    35.313648    24.123785    0.676145    -4.353888    -9.923838    24.384583    -20.272444    -3.561063    -24.317940    41.307606    0.000000    0.000000    0.000000    -10.931290    -13.307095    -22.393087    5.382041    17.651875    -18.753868    6.637123    8.639225    -10.609088    0.000000    0.000000    0.000000    
-10.956861    157.562851    -91.962959    -2.334212    -6.918196    49.211437    -0.755696    -3.082722    0.143276    -8.046136    1.118783    0.129993    4.159086    8.100480    -21.313379    17.318808    -0.819462    -20.044807    8.345302    -0.064404    -19.449396    -41.858288    -4.743824    -83.627518    10.352880    -54.970043    -119.287643    -21.451616    -38.700222    -31.764278    -15.411296    -5.965666    -3.472421    12.160696    -25.735485    48.141281    -6.670929    -1.248392    14.031594    -7.908940    -2.947118    35.312374    24.132353    0.666641    -4.346914    -9.916673    24.404358    -20.319849    -3.513791    -24.318863    41.344078    0.000000    0.000000    0.000000    -10.869933    -13.332513    -22.589737    5.178008    17.687851    -18.711348    6.661363    8.676960    -10.425118    0.000000    0.000000    0.000000    
